<mxfile host="app.diagrams.net" agent="Mozilla/5.0 (X11; Linux x86_64; rv:138.0) Gecko/20100101 Firefox/138.0" version="27.1.4">
  <diagram name="Página-1" id="SfkIkPFTmNeAxHUeRM9W">
    <mxGraphModel grid="1" page="1" gridSize="10" guides="1" tooltips="1" connect="1" arrows="1" fold="1" pageScale="1" pageWidth="827" pageHeight="1169" math="0" shadow="0">
      <root>
        <mxCell id="0" />
        <mxCell id="1" parent="0" />
        <mxCell id="OdaGxbbIhGWnSlfC7kAB-2" value="Usuário" style="shape=umlActor;verticalLabelPosition=bottom;verticalAlign=top;html=1;outlineConnect=0;strokeWidth=2;fontStyle=1" vertex="1" parent="1">
          <mxGeometry x="170" y="310" width="30" height="60" as="geometry" />
        </mxCell>
        <mxCell id="OdaGxbbIhGWnSlfC7kAB-18" value="Fazer Login" style="ellipse;whiteSpace=wrap;html=1;strokeWidth=2;fontStyle=1" vertex="1" parent="1">
          <mxGeometry x="340" y="260" width="100" height="70" as="geometry" />
        </mxCell>
        <mxCell id="OdaGxbbIhGWnSlfC7kAB-38" value="Cadastrar conta" style="ellipse;whiteSpace=wrap;html=1;strokeWidth=2;fontStyle=1" vertex="1" parent="1">
          <mxGeometry x="510" y="370" width="80" height="60" as="geometry" />
        </mxCell>
        <mxCell id="GVx5TZ1rQHHiZWTmJwIa-1" value="Fazer login" style="shape=umlFrame;whiteSpace=wrap;html=1;pointerEvents=0;width=80;height=30;strokeWidth=2;fontStyle=1" vertex="1" parent="1">
          <mxGeometry x="230" y="210" width="380" height="300" as="geometry" />
        </mxCell>
        <mxCell id="GVx5TZ1rQHHiZWTmJwIa-2" value="" style="endArrow=none;html=1;rounded=0;exitX=0;exitY=0.638;exitDx=0;exitDy=0;exitPerimeter=0;strokeWidth=2;" edge="1" parent="1" source="OdaGxbbIhGWnSlfC7kAB-18" target="OdaGxbbIhGWnSlfC7kAB-2">
          <mxGeometry width="50" height="50" relative="1" as="geometry">
            <mxPoint x="390" y="380" as="sourcePoint" />
            <mxPoint x="440" y="330" as="targetPoint" />
          </mxGeometry>
        </mxCell>
        <mxCell id="GVx5TZ1rQHHiZWTmJwIa-7" value="" style="endArrow=open;html=1;rounded=0;exitX=0.013;exitY=0.35;exitDx=0;exitDy=0;dashed=1;entryX=1;entryY=1;entryDx=0;entryDy=0;endFill=0;strokeWidth=2;exitPerimeter=0;" edge="1" parent="1" source="OdaGxbbIhGWnSlfC7kAB-38" target="OdaGxbbIhGWnSlfC7kAB-18">
          <mxGeometry width="50" height="50" relative="1" as="geometry">
            <mxPoint x="330" y="400" as="sourcePoint" />
            <mxPoint x="440" y="428" as="targetPoint" />
          </mxGeometry>
        </mxCell>
        <mxCell id="GVx5TZ1rQHHiZWTmJwIa-8" value="&amp;lt;&amp;lt;extend&amp;gt;&amp;gt;" style="edgeLabel;html=1;align=center;verticalAlign=middle;resizable=0;points=[];fontStyle=1" connectable="0" vertex="1" parent="GVx5TZ1rQHHiZWTmJwIa-7">
          <mxGeometry x="0.0541" y="3" relative="1" as="geometry">
            <mxPoint y="-1" as="offset" />
          </mxGeometry>
        </mxCell>
        <mxCell id="O6Ffxt55dI5b1IhwayKP-4" value="Logar google" style="ellipse;whiteSpace=wrap;html=1;strokeWidth=2;fontStyle=1" vertex="1" parent="1">
          <mxGeometry x="290" y="410" width="90" height="60" as="geometry" />
        </mxCell>
        <mxCell id="O6Ffxt55dI5b1IhwayKP-7" value="" style="endArrow=open;html=1;rounded=0;exitX=0;exitY=1;exitDx=0;exitDy=0;dashed=1;entryX=1;entryY=0.5;entryDx=0;entryDy=0;endFill=0;strokeWidth=2;" edge="1" parent="1" source="OdaGxbbIhGWnSlfC7kAB-38" target="O6Ffxt55dI5b1IhwayKP-4">
          <mxGeometry width="50" height="50" relative="1" as="geometry">
            <mxPoint x="440" y="420" as="sourcePoint" />
            <mxPoint x="460" y="480" as="targetPoint" />
          </mxGeometry>
        </mxCell>
        <mxCell id="O6Ffxt55dI5b1IhwayKP-8" value="&amp;lt;&amp;lt;extend&amp;gt;&amp;gt;" style="edgeLabel;html=1;align=center;verticalAlign=middle;resizable=0;points=[];fontStyle=1" connectable="0" vertex="1" parent="O6Ffxt55dI5b1IhwayKP-7">
          <mxGeometry x="0.0541" y="3" relative="1" as="geometry">
            <mxPoint y="-1" as="offset" />
          </mxGeometry>
        </mxCell>
        <mxCell id="O6Ffxt55dI5b1IhwayKP-9" value="" style="endArrow=none;html=1;rounded=0;strokeWidth=2;" edge="1" parent="1" source="O6Ffxt55dI5b1IhwayKP-4">
          <mxGeometry width="50" height="50" relative="1" as="geometry">
            <mxPoint x="330" y="333.5" as="sourcePoint" />
            <mxPoint x="200" y="346.5" as="targetPoint" />
          </mxGeometry>
        </mxCell>
      </root>
    </mxGraphModel>
  </diagram>
</mxfile>
